<?xml version="1.0" encoding="UTF-8"?>
<svg width="700pt" height="700pt" version="1.1" viewBox="0 0 700 700" xmlns="http://www.w3.org/2000/svg">
 <g>
  <path d="m350 297.68c77.176 0 140-62.824 140-140s-62.824-140.18-140-140.18-140 62.824-140 140 62.824 140 140 140zm0-245.18c57.926 0 105 47.074 105 105s-47.074 105-105 105-105-47.074-105-105 47.074-105 105-105z"/>
  <path d="m420.18 332.32h-140.35c-106.05 0-192.32 86.273-192.32 192.32v17.676h525v-17.676c0-106.05-86.273-192.32-192.32-192.32zm-296.8 175.18c8.5742-78.75 75.426-140 156.45-140h140.35c80.852 0 147.7 61.25 156.27 140z"/>
 </g>
</svg>
